<svg xmlns="http://www.w3.org/2000/svg" role="img" aria-labelledby="title desc" viewBox="0 0 900 500">
<title id="title">Final direct-refinement training trace</title>
<desc id="desc">Logged training and validation losses over the 4000-update direct-refinement stage.</desc>
<rect width="900" height="500" fill="#ffffff"/>
<text x="450.00" y="30.00" fill="#0f172a" font-family="Arial, Helvetica, sans-serif" font-size="17.00" font-weight="700" text-anchor="middle">Final direct-refinement stage — Trackio milestone trace</text>
<line x1="95.00" y1="380.00" x2="815.00" y2="380.00" stroke="#e2e8f0" stroke-width="1.00"/>
<text x="87.00" y="384.00" fill="#475569" font-family="Arial, Helvetica, sans-serif" font-size="9.00" font-weight="400" text-anchor="end">0.12</text>
<line x1="95.00" y1="305.00" x2="815.00" y2="305.00" stroke="#e2e8f0" stroke-width="1.00"/>
<text x="87.00" y="309.00" fill="#475569" font-family="Arial, Helvetica, sans-serif" font-size="9.00" font-weight="400" text-anchor="end">0.14</text>
<line x1="95.00" y1="230.00" x2="815.00" y2="230.00" stroke="#e2e8f0" stroke-width="1.00"/>
<text x="87.00" y="234.00" fill="#475569" font-family="Arial, Helvetica, sans-serif" font-size="9.00" font-weight="400" text-anchor="end">0.16</text>
<line x1="95.00" y1="155.00" x2="815.00" y2="155.00" stroke="#e2e8f0" stroke-width="1.00"/>
<text x="87.00" y="159.00" fill="#475569" font-family="Arial, Helvetica, sans-serif" font-size="9.00" font-weight="400" text-anchor="end">0.18</text>
<line x1="95.00" y1="80.00" x2="815.00" y2="80.00" stroke="#e2e8f0" stroke-width="1.00"/>
<text x="87.00" y="84.00" fill="#475569" font-family="Arial, Helvetica, sans-serif" font-size="9.00" font-weight="400" text-anchor="end">0.2</text>
<line x1="95.00" y1="380.00" x2="815.00" y2="380.00" stroke="#64748b" stroke-width="1.00"/>
<line x1="95.00" y1="80.00" x2="95.00" y2="380.00" stroke="#64748b" stroke-width="1.00"/>
<polyline points="95.00,215.08 168.85,256.62 261.15,257.90 353.46,307.19 445.77,285.52 538.08,239.88 630.38,297.38 722.69,286.15 815.00,347.06" fill="none" stroke="#64748b" stroke-width="2.5"/>
<circle cx="95.00" cy="215.08" r="4.00" fill="#64748b" stroke="#ffffff"/>
<text x="95.00" y="204.08" fill="#0f172a" font-family="Arial, Helvetica, sans-serif" font-size="9.00" font-weight="700" text-anchor="middle">0.164</text>
<circle cx="168.85" cy="256.62" r="4.00" fill="#64748b" stroke="#ffffff"/>
<circle cx="261.15" cy="257.90" r="4.00" fill="#64748b" stroke="#ffffff"/>
<circle cx="353.46" cy="307.19" r="4.00" fill="#64748b" stroke="#ffffff"/>
<circle cx="445.77" cy="285.52" r="4.00" fill="#64748b" stroke="#ffffff"/>
<circle cx="538.08" cy="239.88" r="4.00" fill="#64748b" stroke="#ffffff"/>
<circle cx="630.38" cy="297.38" r="4.00" fill="#64748b" stroke="#ffffff"/>
<circle cx="722.69" cy="286.15" r="4.00" fill="#64748b" stroke="#ffffff"/>
<circle cx="815.00" cy="347.06" r="4.00" fill="#64748b" stroke="#ffffff"/>
<text x="815.00" y="336.06" fill="#0f172a" font-family="Arial, Helvetica, sans-serif" font-size="9.00" font-weight="700" text-anchor="middle">0.129</text>
<polyline points="95.00,97.27 168.85,203.17 261.15,238.64 353.46,254.67 445.77,264.44 538.08,269.66 630.38,276.59 722.69,280.38 815.00,285.49" fill="none" stroke="#2563eb" stroke-width="2.5"/>
<rect x="91.00" y="93.27" width="8.00" height="8.00" rx="0.00" fill="#2563eb" stroke="#2563eb" stroke-width="1.00"/>
<text x="95.00" y="86.27" fill="#0f172a" font-family="Arial, Helvetica, sans-serif" font-size="9.00" font-weight="700" text-anchor="middle">0.195</text>
<rect x="164.85" y="199.17" width="8.00" height="8.00" rx="0.00" fill="#2563eb" stroke="#2563eb" stroke-width="1.00"/>
<rect x="257.15" y="234.64" width="8.00" height="8.00" rx="0.00" fill="#2563eb" stroke="#2563eb" stroke-width="1.00"/>
<rect x="349.46" y="250.67" width="8.00" height="8.00" rx="0.00" fill="#2563eb" stroke="#2563eb" stroke-width="1.00"/>
<rect x="441.77" y="260.44" width="8.00" height="8.00" rx="0.00" fill="#2563eb" stroke="#2563eb" stroke-width="1.00"/>
<rect x="534.08" y="265.66" width="8.00" height="8.00" rx="0.00" fill="#2563eb" stroke="#2563eb" stroke-width="1.00"/>
<rect x="626.38" y="272.59" width="8.00" height="8.00" rx="0.00" fill="#2563eb" stroke="#2563eb" stroke-width="1.00"/>
<rect x="718.69" y="276.38" width="8.00" height="8.00" rx="0.00" fill="#2563eb" stroke="#2563eb" stroke-width="1.00"/>
<rect x="811.00" y="281.49" width="8.00" height="8.00" rx="0.00" fill="#2563eb" stroke="#2563eb" stroke-width="1.00"/>
<text x="815.00" y="274.49" fill="#0f172a" font-family="Arial, Helvetica, sans-serif" font-size="9.00" font-weight="700" text-anchor="middle">0.145</text>
<text x="95.00" y="405.00" fill="#475569" font-family="Arial, Helvetica, sans-serif" font-size="9.00" font-weight="400" text-anchor="middle">100</text>
<text x="261.15" y="405.00" fill="#475569" font-family="Arial, Helvetica, sans-serif" font-size="9.00" font-weight="400" text-anchor="middle">1,000</text>
<text x="445.77" y="405.00" fill="#475569" font-family="Arial, Helvetica, sans-serif" font-size="9.00" font-weight="400" text-anchor="middle">2,000</text>
<text x="630.38" y="405.00" fill="#475569" font-family="Arial, Helvetica, sans-serif" font-size="9.00" font-weight="400" text-anchor="middle">3,000</text>
<text x="815.00" y="405.00" fill="#475569" font-family="Arial, Helvetica, sans-serif" font-size="9.00" font-weight="400" text-anchor="middle">4,000</text>
<text x="455.00" y="430.00" fill="#0f172a" font-family="Arial, Helvetica, sans-serif" font-size="11.00" font-weight="700" text-anchor="middle">Optimizer updates</text>
<text x="95.00" y="64.00" fill="#475569" font-family="Arial, Helvetica, sans-serif" font-size="10.00" font-weight="700" text-anchor="start">Loss ↓</text>
<circle cx="280.00" cy="468.00" r="5.00" fill="#64748b" stroke="#ffffff"/>
<text x="294.00" y="472.00" fill="#0f172a" font-family="Arial, Helvetica, sans-serif" font-size="10.00" font-weight="400" text-anchor="start">Training loss</text>
<rect x="500.00" y="463.00" width="10.00" height="10.00" rx="0.00" fill="#2563eb" stroke="#2563eb" stroke-width="1.00"/>
<text x="517.00" y="472.00" fill="#0f172a" font-family="Arial, Helvetica, sans-serif" font-size="10.00" font-weight="400" text-anchor="start">Validation loss</text>
</svg>
